# Blender v2.76 (sub 0) OBJ File: 'saikoro.blend'
# www.blender.org
mtllib saikoro.mtl
o Cube
v -1.000000 -1.000000 1.000000
v -1.000000 -1.000000 -1.000000
v 1.000000 -1.000000 -1.000000
v 1.000000 -1.000000 1.000000
v -1.000000 0.994554 1.000095
v -1.000000 0.994554 -0.999905
v 1.000000 0.994554 -0.999905
v 1.000000 0.994554 1.000095
vt 0.742217 0.652228
vt 0.748926 0.341262
vt 0.994645 0.336778
vt 0.984582 0.647744
vt 0.249616 0.992262
vt 0.253174 0.660638
vt 0.490660 0.655881
vt 0.497165 0.996443
vt 0.256724 0.342433
vt 0.497564 0.346614
vt 0.256928 -0.002599
vt 0.487705 -0.007357
vt 0.748932 0.341247
vt 0.749628 0.663503
vt 0.005160 0.648128
vt -0.001353 0.320983
vn -1.000000 0.000000 0.000000
vn 0.000000 0.000000 -1.000000
vn 1.000000 0.000000 0.000000
vn 0.000000 -0.000000 1.000000
vn 0.000000 -1.000000 0.000000
vn 0.000000 1.000000 0.000000
usemtl Material
s off
f 5/1/1 6/2/1 2/3/1 1/4/1
f 6/5/2 7/6/2 3/7/2 2/8/2
f 7/6/3 8/9/3 4/10/3 3/7/3
f 8/9/4 5/11/4 1/12/4 4/10/4
f 1/13/5 2/14/5 3/7/5 4/10/5
f 8/9/6 7/6/6 6/15/6 5/16/6
